<svg xmlns="http://www.w3.org/2000/svg" xmlns:xlink="http://www.w3.org/1999/xlink" width="500" zoomAndPan="magnify" viewBox="0 0 375 374.999991" height="500" preserveAspectRatio="xMidYMid meet" version="1.0"><defs><clipPath id="2ed7b60b21"><path d="M 21.472656 0 L 347.722656 0 L 347.722656 375 L 21.472656 375 Z M 21.472656 0 " clip-rule="nonzero"/></clipPath></defs><rect x="-37.5" width="450" fill="#ffffff" y="-37.499999" height="449.999989" fill-opacity="1"/><rect x="-37.5" width="450" fill="#ffffff" y="-37.499999" height="449.999989" fill-opacity="1"/><g clip-path="url(#2ed7b60b21)"><path fill="#222f62" d="M 184.535156 0.0273438 C 128.800781 126.25 21.425781 154.9375 21.425781 154.9375 L 21.425781 373.785156 C 112.40625 380.34375 184.535156 311.492188 184.535156 311.492188 C 184.535156 311.492188 256.664062 380.34375 347.648438 373.785156 L 347.648438 154.9375 C 347.648438 154.9375 240.273438 126.25 184.535156 0.0273438 " fill-opacity="1" fill-rule="nonzero"/></g><path fill="#ed1c24" d="M 184.535156 32.808594 C 184.535156 32.808594 120.605469 145.921875 35.359375 162.316406 L 35.359375 360.671875 C 35.359375 360.671875 125.523438 346.738281 184.535156 290.179688 C 243.546875 346.738281 333.710938 360.671875 333.710938 360.671875 L 333.710938 162.316406 C 248.464844 145.921875 184.535156 32.808594 184.535156 32.808594 " fill-opacity="1" fill-rule="nonzero"/><path fill="#ffffff" d="M 184.535156 249.503906 C 184.535156 249.503906 101.753906 317.96875 35.359375 319.605469 L 35.359375 349.195312 C 35.359375 349.195312 118.148438 334.988281 184.535156 277.613281 C 250.925781 334.988281 333.710938 349.195312 333.710938 349.195312 L 333.710938 319.128906 C 267.316406 317.488281 184.535156 249.503906 184.535156 249.503906 " fill-opacity="1" fill-rule="nonzero"/><path fill="#ffffff" d="M 184.535156 183.625 C 184.535156 183.625 120.296875 260.15625 35.359375 258.246094 L 35.359375 291.820312 C 35.359375 291.820312 102.300781 298.378906 184.535156 219.691406 C 266.773438 298.378906 333.710938 291.820312 333.710938 291.820312 L 333.710938 257.929688 C 245.875 252.523438 184.535156 183.625 184.535156 183.625 " fill-opacity="1" fill-rule="nonzero"/><path fill="#222f62" d="M 184.535156 32.808594 C 184.535156 32.808594 118.6875 143.464844 35.359375 162.316406 L 35.359375 231.574219 C 35.359375 231.574219 106.671875 238.542969 184.535156 155.757812 C 262.402344 238.542969 333.710938 231.574219 333.710938 231.574219 L 333.710938 162.316406 C 250.382812 143.464844 184.535156 32.808594 184.535156 32.808594 " fill-opacity="1" fill-rule="nonzero"/><path fill="#ffffff" d="M 135.359375 121.828125 L 129.046875 141.257812 L 108.609375 141.257812 L 125.144531 153.265625 L 118.832031 172.699219 L 135.359375 160.6875 L 151.890625 172.699219 L 145.578125 153.265625 L 162.105469 141.257812 L 141.667969 141.257812 L 135.359375 121.828125 " fill-opacity="1" fill-rule="nonzero"/><path fill="#ffffff" d="M 83.445312 157.34375 L 77.132812 176.773438 L 56.699219 176.773438 L 73.226562 188.78125 L 66.917969 208.214844 L 83.445312 196.207031 L 99.976562 208.214844 L 93.664062 188.78125 L 110.191406 176.773438 L 89.753906 176.773438 L 83.445312 157.34375 " fill-opacity="1" fill-rule="nonzero"/><path fill="#ffffff" d="M 184.535156 85.761719 L 190.84375 105.191406 L 211.285156 105.191406 L 194.75 117.199219 L 201.0625 136.632812 L 184.535156 124.621094 L 168.007812 136.632812 L 174.316406 117.199219 L 157.785156 105.191406 L 178.226562 105.191406 L 184.535156 85.761719 " fill-opacity="1" fill-rule="nonzero"/><path fill="#ffffff" d="M 233.714844 121.828125 L 240.027344 141.257812 L 260.460938 141.257812 L 243.929688 153.265625 L 250.242188 172.699219 L 233.714844 160.6875 L 217.183594 172.699219 L 223.496094 153.265625 L 206.96875 141.257812 L 227.40625 141.257812 L 233.714844 121.828125 " fill-opacity="1" fill-rule="nonzero"/><path fill="#ffffff" d="M 285.625 157.34375 L 291.9375 176.773438 L 312.371094 176.773438 L 295.839844 188.78125 L 302.15625 208.214844 L 285.625 196.207031 L 269.097656 208.214844 L 275.40625 188.78125 L 258.878906 176.773438 L 279.316406 176.773438 L 285.625 157.34375 " fill-opacity="1" fill-rule="nonzero"/></svg>