<svg xmlns="http://www.w3.org/2000/svg" xmlns:xlink="http://www.w3.org/1999/xlink" width="500" zoomAndPan="magnify" viewBox="0 0 375 374.999991" height="500" preserveAspectRatio="xMidYMid meet" version="1.0"><defs><g/><clipPath id="4681873826"><path d="M 123.1875 62.078125 L 252 62.078125 L 252 210 L 123.1875 210 Z M 123.1875 62.078125 " clip-rule="nonzero"/></clipPath><clipPath id="6edb9da05a"><path d="M 214.359375 208.050781 L 328.59375 208.050781 L 328.59375 252.734375 L 214.359375 252.734375 Z M 214.359375 208.050781 " clip-rule="nonzero"/></clipPath><clipPath id="6fcbe055ca"><path d="M 231 204.378906 L 249 204.378906 L 249 210 L 231 210 Z M 231 204.378906 " clip-rule="nonzero"/></clipPath><clipPath id="e31654d7d6"><path d="M 45.160156 208.050781 L 159.394531 208.050781 L 159.394531 252.734375 L 45.160156 252.734375 Z M 45.160156 208.050781 " clip-rule="nonzero"/></clipPath><clipPath id="aa20e35bf6"><path d="M 125 204.378906 L 142 204.378906 L 142 210 L 125 210 Z M 125 204.378906 " clip-rule="nonzero"/></clipPath></defs><rect x="-37.5" width="450" fill="#ffffff" y="-37.499999" height="449.999989" fill-opacity="1"/><rect x="-37.5" width="450" fill="#ffffff" y="-37.499999" height="449.999989" fill-opacity="1"/><g clip-path="url(#4681873826)"><path fill="#222f62" d="M 187.488281 62.089844 C 165.507812 111.863281 123.167969 123.175781 123.167969 123.175781 L 123.167969 209.472656 C 159.046875 212.058594 187.488281 184.90625 187.488281 184.90625 C 187.488281 184.90625 215.929688 212.058594 251.804688 209.472656 L 251.804688 123.175781 C 251.804688 123.175781 209.464844 111.863281 187.488281 62.089844 " fill-opacity="1" fill-rule="nonzero"/></g><path fill="#ed1c24" d="M 187.488281 75.015625 C 187.488281 75.015625 162.277344 119.621094 128.664062 126.082031 L 128.664062 204.300781 C 128.664062 204.300781 164.214844 198.804688 187.488281 176.503906 C 210.757812 198.804688 246.308594 204.300781 246.308594 204.300781 L 246.308594 126.082031 C 212.695312 119.621094 187.488281 75.015625 187.488281 75.015625 " fill-opacity="1" fill-rule="nonzero"/><path fill="#ffffff" d="M 187.488281 160.464844 C 187.488281 160.464844 154.84375 187.460938 128.664062 188.105469 L 128.664062 199.773438 C 128.664062 199.773438 161.308594 194.171875 187.488281 171.546875 C 213.667969 194.171875 246.308594 199.773438 246.308594 199.773438 L 246.308594 187.917969 C 220.128906 187.273438 187.488281 160.464844 187.488281 160.464844 " fill-opacity="1" fill-rule="nonzero"/><path fill="#ffffff" d="M 187.488281 134.488281 C 187.488281 134.488281 162.15625 164.664062 128.664062 163.910156 L 128.664062 177.148438 C 128.664062 177.148438 155.058594 179.734375 187.488281 148.707031 C 219.914062 179.734375 246.308594 177.148438 246.308594 177.148438 L 246.308594 163.785156 C 211.675781 161.65625 187.488281 134.488281 187.488281 134.488281 " fill-opacity="1" fill-rule="nonzero"/><path fill="#222f62" d="M 187.488281 75.015625 C 187.488281 75.015625 161.523438 118.648438 128.664062 126.082031 L 128.664062 153.394531 C 128.664062 153.394531 156.78125 156.140625 187.488281 123.496094 C 218.191406 156.140625 246.308594 153.394531 246.308594 153.394531 L 246.308594 126.082031 C 213.453125 118.648438 187.488281 75.015625 187.488281 75.015625 " fill-opacity="1" fill-rule="nonzero"/><path fill="#ffffff" d="M 168.09375 110.117188 L 165.605469 117.78125 L 157.546875 117.78125 L 164.066406 122.515625 L 161.578125 130.179688 L 168.09375 125.441406 L 174.613281 130.179688 L 172.125 122.515625 L 178.640625 117.78125 L 170.582031 117.78125 L 168.09375 110.117188 " fill-opacity="1" fill-rule="nonzero"/><path fill="#ffffff" d="M 147.625 124.125 L 145.136719 131.785156 L 137.078125 131.785156 L 143.597656 136.519531 L 141.105469 144.183594 L 147.625 139.449219 L 154.144531 144.183594 L 151.652344 136.519531 L 158.171875 131.785156 L 150.113281 131.785156 L 147.625 124.125 " fill-opacity="1" fill-rule="nonzero"/><path fill="#ffffff" d="M 187.488281 95.898438 L 189.976562 103.558594 L 198.035156 103.558594 L 191.515625 108.292969 L 194.003906 115.957031 L 187.488281 111.21875 L 180.96875 115.957031 L 183.457031 108.292969 L 176.9375 103.558594 L 185 103.558594 L 187.488281 95.898438 " fill-opacity="1" fill-rule="nonzero"/><path fill="#ffffff" d="M 206.878906 110.117188 L 209.367188 117.78125 L 217.425781 117.78125 L 210.90625 122.515625 L 213.398438 130.179688 L 206.878906 125.441406 L 200.363281 130.179688 L 202.851562 122.515625 L 196.332031 117.78125 L 204.390625 117.78125 L 206.878906 110.117188 " fill-opacity="1" fill-rule="nonzero"/><path fill="#ffffff" d="M 227.347656 124.125 L 229.839844 131.785156 L 237.894531 131.785156 L 231.378906 136.519531 L 233.867188 144.183594 L 227.347656 139.449219 L 220.832031 144.183594 L 223.320312 136.519531 L 216.800781 131.785156 L 224.859375 131.785156 L 227.347656 124.125 " fill-opacity="1" fill-rule="nonzero"/><g fill="#222f62" fill-opacity="1"><g transform="translate(90.236859, 283.621614)"><g><path d="M 17.78125 -30.390625 L 22.796875 -30.390625 C 23.296875 -30.390625 23.546875 -30.132812 23.546875 -29.625 L 23.546875 -0.765625 C 23.546875 -0.253906 23.296875 0 22.796875 0 L 19.265625 0 C 18.753906 0 18.5 -0.253906 18.5 -0.765625 L 18.5 -17.859375 L 18.234375 -17.859375 L 14.46875 -0.6875 C 14.363281 -0.226562 14.085938 0 13.640625 0 L 11.78125 0 C 11.34375 0 11.0625 -0.226562 10.9375 -0.6875 L 7.171875 -17.859375 L 6.90625 -17.859375 L 6.90625 -0.765625 C 6.90625 -0.253906 6.65625 0 6.15625 0 L 2.65625 0 C 2.15625 0 1.90625 -0.253906 1.90625 -0.765625 L 1.90625 -29.625 C 1.90625 -30.132812 2.15625 -30.390625 2.65625 -30.390625 L 7.671875 -30.390625 C 8.128906 -30.390625 8.410156 -30.160156 8.515625 -29.703125 L 12.71875 -10.78125 L 16.9375 -29.703125 C 17.0625 -30.160156 17.34375 -30.390625 17.78125 -30.390625 Z M 17.78125 -30.390625 "/></g></g></g><g fill="#222f62" fill-opacity="1"><g transform="translate(123.205222, 283.621614)"><g><path d="M 2.5 -30.390625 L 6.453125 -30.390625 C 6.859375 -30.390625 7.0625 -30.1875 7.0625 -29.78125 L 7.0625 -0.609375 C 7.0625 -0.203125 6.859375 0 6.453125 0 L 2.5 0 C 2.101562 0 1.90625 -0.203125 1.90625 -0.609375 L 1.90625 -29.78125 C 1.90625 -30.1875 2.101562 -30.390625 2.5 -30.390625 Z M 2.5 -30.390625 "/></g></g></g><g fill="#222f62" fill-opacity="1"><g transform="translate(139.690399, 283.621614)"><g><path d="M 7.0625 -5.015625 L 7.0625 -29.78125 C 7.0625 -30.1875 6.859375 -30.390625 6.453125 -30.390625 L 2.5 -30.390625 C 2.101562 -30.390625 1.90625 -30.1875 1.90625 -29.78125 L 1.90625 -0.609375 C 1.90625 -0.203125 2.101562 0 2.5 0 L 16.109375 0 C 16.515625 0 16.71875 -0.203125 16.71875 -0.609375 L 16.71875 -4.40625 C 16.71875 -4.8125 16.515625 -5.015625 16.109375 -5.015625 Z M 7.0625 -5.015625 "/></g></g></g><g fill="#222f62" fill-opacity="1"><g transform="translate(165.822406, 283.621614)"><g><path d="M 2.5 -30.390625 L 6.453125 -30.390625 C 6.859375 -30.390625 7.0625 -30.1875 7.0625 -29.78125 L 7.0625 -0.609375 C 7.0625 -0.203125 6.859375 0 6.453125 0 L 2.5 0 C 2.101562 0 1.90625 -0.203125 1.90625 -0.609375 L 1.90625 -29.78125 C 1.90625 -30.1875 2.101562 -30.390625 2.5 -30.390625 Z M 2.5 -30.390625 "/></g></g></g><g fill="#222f62" fill-opacity="1"><g transform="translate(182.307587, 283.621614)"><g><path d="M 1.75 -30.390625 L 15.71875 -30.390625 C 16.125 -30.390625 16.328125 -30.1875 16.328125 -29.78125 L 16.328125 -25.984375 C 16.328125 -25.578125 16.125 -25.375 15.71875 -25.375 L 11.3125 -25.375 L 11.3125 -0.609375 C 11.3125 -0.203125 11.113281 0 10.71875 0 L 6.765625 0 C 6.359375 0 6.15625 -0.203125 6.15625 -0.609375 L 6.15625 -25.375 L 1.75 -25.375 C 1.34375 -25.375 1.140625 -25.578125 1.140625 -25.984375 L 1.140625 -29.78125 C 1.140625 -30.1875 1.34375 -30.390625 1.75 -30.390625 Z M 1.75 -30.390625 "/></g></g></g><g fill="#222f62" fill-opacity="1"><g transform="translate(207.300217, 283.621614)"><g><path d="M 20.203125 0 L 16.1875 0 C 15.851562 0 15.648438 -0.175781 15.578125 -0.53125 L 14.515625 -6.078125 L 7.75 -6.078125 L 6.71875 -0.53125 C 6.644531 -0.175781 6.441406 0 6.109375 0 L 2.046875 0 C 1.597656 0 1.4375 -0.210938 1.5625 -0.640625 L 7.859375 -29.859375 C 7.941406 -30.210938 8.160156 -30.390625 8.515625 -30.390625 L 13.78125 -30.390625 C 14.132812 -30.390625 14.351562 -30.210938 14.4375 -29.859375 L 20.734375 -0.640625 C 20.816406 -0.210938 20.640625 0 20.203125 0 Z M 13.5625 -10.484375 L 11.125 -23.734375 L 8.703125 -10.484375 Z M 13.5625 -10.484375 "/></g></g></g><g fill="#222f62" fill-opacity="1"><g transform="translate(237.078282, 283.621614)"><g><path d="M 17.515625 -24.921875 L 17.515625 -15.65625 C 17.515625 -13.113281 16.585938 -11.441406 14.734375 -10.640625 L 17.359375 -0.6875 C 17.484375 -0.226562 17.304688 0 16.828125 0 L 12.875 0 C 12.519531 0 12.304688 -0.175781 12.234375 -0.53125 L 9.6875 -10.1875 L 7.0625 -10.1875 L 7.0625 -0.609375 C 7.0625 -0.203125 6.859375 0 6.453125 0 L 2.5 0 C 2.101562 0 1.90625 -0.203125 1.90625 -0.609375 L 1.90625 -29.78125 C 1.90625 -30.1875 2.101562 -30.390625 2.5 -30.390625 L 12.046875 -30.390625 C 13.835938 -30.390625 15.195312 -29.925781 16.125 -29 C 17.050781 -28.070312 17.515625 -26.710938 17.515625 -24.921875 Z M 7.0625 -15.1875 L 10.828125 -15.1875 C 11.835938 -15.1875 12.34375 -15.695312 12.34375 -16.71875 L 12.34375 -23.859375 C 12.34375 -24.867188 11.835938 -25.375 10.828125 -25.375 L 7.0625 -25.375 Z M 7.0625 -15.1875 "/></g></g></g><g fill="#222f62" fill-opacity="1"><g transform="translate(264.007868, 283.621614)"><g><path d="M 15.5 -30.390625 L 19.296875 -30.390625 C 19.578125 -30.390625 19.78125 -30.3125 19.90625 -30.15625 C 20.03125 -30.007812 20.03125 -29.796875 19.90625 -29.515625 L 12.953125 -12.609375 L 12.953125 -0.765625 C 12.953125 -0.253906 12.695312 0 12.1875 0 L 8.546875 0 C 8.035156 0 7.78125 -0.253906 7.78125 -0.765625 L 7.78125 -12.609375 L 0.828125 -29.515625 C 0.734375 -29.796875 0.742188 -30.007812 0.859375 -30.15625 C 0.972656 -30.3125 1.164062 -30.390625 1.4375 -30.390625 L 5.234375 -30.390625 C 5.671875 -30.390625 5.960938 -30.1875 6.109375 -29.78125 L 10.375 -18.875 L 14.625 -29.78125 C 14.78125 -30.1875 15.070312 -30.390625 15.5 -30.390625 Z M 15.5 -30.390625 "/></g></g></g><g fill="#222f62" fill-opacity="1"><g transform="translate(155.211309, 312.66074)"><g><path d="M 5.921875 -13.25 C 7.085938 -13.25 8.265625 -13.019531 9.453125 -12.5625 L 8.921875 -9.8125 L 8.4375 -9.625 C 7.925781 -9.96875 7.410156 -10.234375 6.890625 -10.421875 C 6.378906 -10.609375 5.9375 -10.703125 5.5625 -10.703125 C 5.113281 -10.703125 4.757812 -10.585938 4.5 -10.359375 C 4.238281 -10.140625 4.109375 -9.882812 4.109375 -9.59375 C 4.109375 -9.25 4.269531 -8.957031 4.59375 -8.71875 C 4.925781 -8.488281 5.453125 -8.210938 6.171875 -7.890625 C 6.921875 -7.535156 7.53125 -7.210938 8 -6.921875 C 8.46875 -6.640625 8.875 -6.253906 9.21875 -5.765625 C 9.5625 -5.273438 9.734375 -4.679688 9.734375 -3.984375 C 9.734375 -3.203125 9.519531 -2.492188 9.09375 -1.859375 C 8.664062 -1.222656 8.0625 -0.71875 7.28125 -0.34375 C 6.5 0.0195312 5.597656 0.203125 4.578125 0.203125 C 3.210938 0.203125 1.863281 -0.0664062 0.53125 -0.609375 L 0.984375 -3.546875 L 1.328125 -3.75 C 1.898438 -3.269531 2.519531 -2.898438 3.1875 -2.640625 C 3.851562 -2.378906 4.429688 -2.25 4.921875 -2.25 C 5.429688 -2.25 5.816406 -2.363281 6.078125 -2.59375 C 6.335938 -2.820312 6.46875 -3.09375 6.46875 -3.40625 C 6.46875 -3.769531 6.300781 -4.070312 5.96875 -4.3125 C 5.632812 -4.550781 5.109375 -4.832031 4.390625 -5.15625 C 3.660156 -5.5 3.0625 -5.8125 2.59375 -6.09375 C 2.132812 -6.382812 1.734375 -6.773438 1.390625 -7.265625 C 1.054688 -7.753906 0.890625 -8.347656 0.890625 -9.046875 C 0.890625 -9.835938 1.101562 -10.550781 1.53125 -11.1875 C 1.957031 -11.832031 2.550781 -12.335938 3.3125 -12.703125 C 4.070312 -13.066406 4.941406 -13.25 5.921875 -13.25 Z M 5.921875 -13.25 "/></g></g></g><g fill="#222f62" fill-opacity="1"><g transform="translate(169.533667, 312.66074)"><g><path d="M 14.1875 0 L 10.71875 0 L 9.078125 -5.625 L 8.890625 -5.625 L 7.265625 0 L 3.78125 0 L 0.359375 -13.046875 L 3.5625 -13.046875 L 3.765625 -11.265625 L 5.640625 -3.34375 L 5.84375 -3.34375 L 7.765625 -9.9375 L 6.953125 -13.046875 L 10.28125 -13.046875 L 10.5625 -10.953125 L 12.53125 -3.34375 L 12.734375 -3.34375 L 14.9375 -11.09375 L 15.28125 -13.046875 L 18.3125 -13.046875 Z M 14.1875 0 "/></g></g></g><g fill="#222f62" fill-opacity="1"><g transform="translate(191.885966, 312.66074)"><g><path d="M 12.09375 0 L 8.765625 0 L 8.421875 -1.875 L 8.234375 -2.625 L 5.890625 -2.671875 L 3.859375 -2.609375 L 3.703125 -2.078125 L 3.34375 0 L 0.125 0 L 4.328125 -13.046875 L 8.28125 -13.046875 Z M 7.609375 -5.09375 L 6.328125 -10.0625 L 6.125 -10.0625 L 4.609375 -5.09375 L 6.109375 -5.0625 Z M 7.609375 -5.09375 "/></g></g></g><g fill="#222f62" fill-opacity="1"><g transform="translate(208.251208, 312.66074)"><g><path d="M 6.921875 -13.078125 C 8.328125 -13.078125 9.410156 -12.722656 10.171875 -12.015625 C 10.929688 -11.316406 11.3125 -10.320312 11.3125 -9.03125 C 11.3125 -8.007812 11.082031 -7.117188 10.625 -6.359375 C 10.164062 -5.597656 9.515625 -5.007812 8.671875 -4.59375 C 7.835938 -4.175781 6.867188 -3.96875 5.765625 -3.96875 L 4.59375 -3.96875 L 4.71875 0 L 1.421875 0 L 1.59375 -3.859375 L 1.421875 -13.046875 Z M 6.359375 -6.328125 C 6.867188 -6.503906 7.25 -6.785156 7.5 -7.171875 C 7.75 -7.554688 7.875 -8.066406 7.875 -8.703125 C 7.875 -9.378906 7.707031 -9.878906 7.375 -10.203125 C 7.039062 -10.523438 6.523438 -10.695312 5.828125 -10.71875 L 4.734375 -10.65625 L 4.640625 -6.421875 Z M 6.359375 -6.328125 "/></g></g></g><g clip-path="url(#6edb9da05a)"><path fill="#222f62" d="M 214.898438 212.136719 C 216.675781 210.484375 221.078125 208.898438 231.375 214.617188 C 235.832031 217.394531 238.246094 219.175781 239.464844 220.164062 C 240.246094 220.796875 241.207031 221.171875 242.210938 221.238281 C 247.574219 221.613281 264.511719 223.246094 270.316406 223.128906 C 271.160156 223.113281 271.449219 221.972656 270.878906 221.523438 C 270.453125 221.191406 269.800781 221.027344 268.867188 220.738281 C 265.574219 219.710938 247.273438 219.796875 247.675781 212.949219 C 248.058594 206.386719 261.179688 208.808594 265.074219 209.636719 C 266.582031 209.957031 268.265625 210.210938 269.820312 210.398438 C 269.820312 210.398438 275.464844 210.648438 278.242188 209.980469 C 284.035156 208.46875 296.210938 206.011719 303.90625 212.25 C 310.105469 217.269531 312.855469 220.578125 314.058594 222.382812 C 314.867188 223.601562 315.976562 224.589844 317.273438 225.265625 L 328.117188 232.898438 C 328.6875 233.300781 328.757812 234.117188 328.265625 234.609375 L 310.46875 252.40625 C 309.984375 252.890625 309.179688 252.832031 308.773438 252.28125 C 306.324219 248.972656 297.570312 239.277344 279.320312 239.867188 C 257.332031 240.578125 257.191406 240.148438 252.367188 237.597656 C 248.582031 235.59375 239.578125 232.371094 235.878906 231.074219 C 234.789062 230.695312 233.777344 230.125 232.882812 229.390625 L 215.015625 214.714844 C 214.1875 214.078125 214.132812 212.847656 214.898438 212.136719 " fill-opacity="1" fill-rule="nonzero"/></g><g clip-path="url(#6fcbe055ca)"><path fill="#222f62" d="M 248.730469 207.800781 C 248.164062 208.121094 247.667969 208.492188 247.253906 208.90625 C 246.996094 209.164062 246.765625 209.441406 246.566406 209.730469 C 245.253906 209.109375 243.789062 208.449219 242.207031 207.765625 L 242.183594 207.753906 C 238.21875 206.273438 234.796875 205.480469 231.996094 205.394531 C 232.910156 204.910156 234.054688 204.625 235.40625 204.542969 C 238.273438 204.371094 241.996094 205.136719 246.484375 206.8125 C 247.261719 207.144531 248.015625 207.480469 248.730469 207.800781 " fill-opacity="1" fill-rule="nonzero"/></g><path fill="#222f62" d="M 251.070312 219.210938 C 250.019531 219.128906 249.015625 219.050781 248.078125 218.976562 L 248.066406 218.976562 C 245.554688 218.78125 243.386719 218.613281 242.003906 218.523438 C 241.769531 218.511719 241.53125 218.464844 241.304688 218.382812 C 241.011719 218.285156 240.742188 218.136719 240.503906 217.945312 C 239.25 216.933594 236.839844 215.164062 232.472656 212.457031 L 232.421875 212.429688 L 232.382812 212.40625 C 231.132812 211.71875 229.914062 211.105469 228.761719 210.589844 C 227.621094 210.101562 226.527344 209.703125 225.507812 209.40625 C 225.367188 209.363281 225.226562 209.324219 225.085938 209.285156 C 225.25 209.144531 225.425781 209.011719 225.609375 208.890625 C 226.652344 208.207031 228.046875 207.832031 229.753906 207.773438 C 232.476562 207.683594 235.953125 208.410156 240.089844 209.933594 C 241.96875 210.738281 243.667969 211.503906 245.140625 212.214844 C 245.132812 212.28125 245.128906 212.347656 245.125 212.410156 C 244.929688 215.433594 246.929688 217.71875 251.070312 219.210938 " fill-opacity="1" fill-rule="nonzero"/><g clip-path="url(#e31654d7d6)"><path fill="#222f62" d="M 158.855469 212.136719 C 157.078125 210.484375 152.675781 208.898438 142.378906 214.617188 C 137.921875 217.394531 135.507812 219.175781 134.289062 220.164062 C 133.507812 220.796875 132.546875 221.171875 131.542969 221.238281 C 126.179688 221.613281 109.242188 223.246094 103.4375 223.128906 C 102.59375 223.113281 102.304688 221.972656 102.875 221.523438 C 103.300781 221.191406 103.953125 221.027344 104.886719 220.738281 C 108.179688 219.710938 126.480469 219.796875 126.078125 212.949219 C 125.695312 206.386719 112.574219 208.808594 108.679688 209.636719 C 107.167969 209.957031 105.488281 210.210938 103.933594 210.398438 C 103.933594 210.398438 98.289062 210.648438 95.511719 209.980469 C 89.71875 208.46875 77.539062 206.011719 69.847656 212.25 C 63.648438 217.269531 60.898438 220.578125 59.695312 222.382812 C 58.886719 223.601562 57.777344 224.589844 56.480469 225.265625 L 45.636719 232.898438 C 45.066406 233.300781 44.996094 234.117188 45.488281 234.609375 L 63.285156 252.40625 C 63.769531 252.890625 64.574219 252.832031 64.980469 252.28125 C 67.429688 248.972656 76.183594 239.277344 94.433594 239.867188 C 116.421875 240.578125 116.5625 240.148438 121.386719 237.597656 C 125.171875 235.59375 134.175781 232.371094 137.875 231.074219 C 138.964844 230.695312 139.976562 230.125 140.867188 229.390625 L 158.738281 214.714844 C 159.566406 214.078125 159.621094 212.847656 158.855469 212.136719 " fill-opacity="1" fill-rule="nonzero"/></g><g clip-path="url(#aa20e35bf6)"><path fill="#222f62" d="M 125.023438 207.800781 C 125.589844 208.121094 126.085938 208.492188 126.5 208.90625 C 126.757812 209.164062 126.988281 209.441406 127.1875 209.730469 C 128.5 209.109375 129.964844 208.449219 131.546875 207.765625 L 131.570312 207.753906 C 135.535156 206.273438 138.957031 205.480469 141.757812 205.394531 C 140.84375 204.910156 139.699219 204.625 138.347656 204.542969 C 135.480469 204.371094 131.757812 205.136719 127.269531 206.8125 C 126.492188 207.144531 125.738281 207.480469 125.023438 207.800781 " fill-opacity="1" fill-rule="nonzero"/></g><path fill="#222f62" d="M 122.683594 219.210938 C 123.734375 219.128906 124.738281 219.050781 125.675781 218.976562 L 125.6875 218.976562 C 128.199219 218.78125 130.367188 218.613281 131.75 218.523438 C 131.984375 218.511719 132.222656 218.464844 132.449219 218.382812 C 132.742188 218.285156 133.011719 218.136719 133.25 217.945312 C 134.503906 216.933594 136.914062 215.164062 141.28125 212.457031 L 141.332031 212.429688 L 141.371094 212.40625 C 142.621094 211.71875 143.839844 211.105469 144.992188 210.589844 C 146.132812 210.101562 147.226562 209.703125 148.246094 209.40625 C 148.386719 209.363281 148.527344 209.324219 148.667969 209.285156 C 148.503906 209.144531 148.328125 209.011719 148.144531 208.890625 C 147.101562 208.207031 145.707031 207.832031 144 207.773438 C 141.277344 207.683594 137.796875 208.410156 133.664062 209.933594 C 131.785156 210.738281 130.085938 211.503906 128.613281 212.214844 C 128.621094 212.28125 128.625 212.347656 128.628906 212.410156 C 128.824219 215.433594 126.824219 217.71875 122.683594 219.210938 " fill-opacity="1" fill-rule="nonzero"/></svg>